<svg id="svg" fill="#ffffff" stroke="#ffffff" width="200" height="200" version="1.1" viewBox="144 144 512 512" xmlns="http://www.w3.org/2000/svg">
    <g id="IconSvg_bgCarrier" stroke-width="0"></g>
    <g id="IconSvg_tracerCarrier" stroke-linecap="round" stroke-linejoin="round" stroke="#CCCCCC" stroke-width="0">
      <g xmlns="http://www.w3.org/2000/svg">
  <path d="m210.34 428.5c41.766 51.711 86.375 101.06 133.61 147.83 14.801 14.984 34.988 23.418 56.051 23.418s41.246-8.4336 56.047-23.418c47.246-46.781 91.855-96.152 133.61-147.89 47.465-60.309 45.051-137.92-5.7305-184.58-25.098-21.762-57.422-33.359-90.629-32.52s-64.906 14.055-88.871 37.055l-4.4297 4.1992-4.4102-4.1992c-23.957-23.02-55.652-36.254-88.867-37.094-33.215-0.84375-65.543 10.762-90.637 32.539-50.801 46.727-53.297 124.36-5.75 184.66zm27.035-161.41c17.578-15.902 40.496-24.602 64.195-24.371 26.973 0.125 52.906 10.426 72.613 28.844l15.113 14.023v-0.003906c2.9141 2.6992 6.7383 4.1953 10.707 4.1953s7.7891-1.4961 10.703-4.1953l15.137-14.043c18.145-17.656 42.227-27.898 67.531-28.723 25.301-0.82422 50 7.832 69.254 24.273 43.434 39.887 34.027 101.6 2.2891 141.93-41.059 50.801-84.898 99.285-131.33 145.23-9.0391 8.7188-21.109 13.594-33.672 13.594s-24.633-4.875-33.672-13.594c-46.363-45.953-90.152-94.434-131.16-145.23-31.742-40.324-41.145-102.02 2.2852-141.93z"></path>
  <path d="m295.04 415.74h41.984c5.2656 0.003906 10.18-2.6289 13.098-7.0117l25.379-38.121 30.797 77.211c1.9531 4.9219 6.2539 8.5273 11.441 9.5898 1.0703 0.21484 2.1602 0.32031 3.2539 0.31641 4.1719-0.003906 8.1758-1.6641 11.125-4.6172l37.387-37.367h35.453c5.625 0 10.824-3 13.637-7.8711s2.8125-10.875 0-15.746-8.0117-7.8711-13.637-7.8711h-41.98c-4.1758-0.003906-8.1836 1.6602-11.129 4.6172l-25.191 25.191-32.957-82.875c-1.0625-2.6641-2.832-4.9883-5.1172-6.7188-2.2852-1.7305-5.0039-2.8047-7.8555-3.1055-2.8438-0.25781-5.7031 0.24609-8.2891 1.4648-2.582 1.2188-4.793 3.1016-6.4023 5.4609l-37.41 55.965h-33.586c-5.625 0-10.824 3-13.637 7.8711s-2.8125 10.875 0 15.746 8.0117 7.8711 13.637 7.8711z"></path>
 </g>

      </g>
     <g id="IconSvg_iconCarrier">
      <g xmlns="http://www.w3.org/2000/svg">
  <path d="m210.34 428.5c41.766 51.711 86.375 101.06 133.61 147.83 14.801 14.984 34.988 23.418 56.051 23.418s41.246-8.4336 56.047-23.418c47.246-46.781 91.855-96.152 133.61-147.89 47.465-60.309 45.051-137.92-5.7305-184.58-25.098-21.762-57.422-33.359-90.629-32.52s-64.906 14.055-88.871 37.055l-4.4297 4.1992-4.4102-4.1992c-23.957-23.02-55.652-36.254-88.867-37.094-33.215-0.84375-65.543 10.762-90.637 32.539-50.801 46.727-53.297 124.36-5.75 184.66zm27.035-161.41c17.578-15.902 40.496-24.602 64.195-24.371 26.973 0.125 52.906 10.426 72.613 28.844l15.113 14.023v-0.003906c2.9141 2.6992 6.7383 4.1953 10.707 4.1953s7.7891-1.4961 10.703-4.1953l15.137-14.043c18.145-17.656 42.227-27.898 67.531-28.723 25.301-0.82422 50 7.832 69.254 24.273 43.434 39.887 34.027 101.6 2.2891 141.93-41.059 50.801-84.898 99.285-131.33 145.23-9.0391 8.7188-21.109 13.594-33.672 13.594s-24.633-4.875-33.672-13.594c-46.363-45.953-90.152-94.434-131.16-145.23-31.742-40.324-41.145-102.02 2.2852-141.93z"></path>
  <path d="m295.04 415.74h41.984c5.2656 0.003906 10.18-2.6289 13.098-7.0117l25.379-38.121 30.797 77.211c1.9531 4.9219 6.2539 8.5273 11.441 9.5898 1.0703 0.21484 2.1602 0.32031 3.2539 0.31641 4.1719-0.003906 8.1758-1.6641 11.125-4.6172l37.387-37.367h35.453c5.625 0 10.824-3 13.637-7.8711s2.8125-10.875 0-15.746-8.0117-7.8711-13.637-7.8711h-41.98c-4.1758-0.003906-8.1836 1.6602-11.129 4.6172l-25.191 25.191-32.957-82.875c-1.0625-2.6641-2.832-4.9883-5.1172-6.7188-2.2852-1.7305-5.0039-2.8047-7.8555-3.1055-2.8438-0.25781-5.7031 0.24609-8.2891 1.4648-2.582 1.2188-4.793 3.1016-6.4023 5.4609l-37.41 55.965h-33.586c-5.625 0-10.824 3-13.637 7.8711s-2.8125 10.875 0 15.746 8.0117 7.8711 13.637 7.8711z"></path>
 </g>

      </g>
      </svg>