<svg id="svg" fill="#ffffff" stroke="#ffffff" width="200" height="200" version="1.1" viewBox="144 144 512 512" xmlns="http://www.w3.org/2000/svg">
    <g id="IconSvg_bgCarrier" stroke-width="0"></g>
    <g id="IconSvg_tracerCarrier" stroke-linecap="round" stroke-linejoin="round" stroke="#CCCCCC" stroke-width="0">
      <path xmlns="http://www.w3.org/2000/svg" d="m609.77 503.64s5.75-41.227-46.727-67.953c0 0-22.273-9.9492-35.938-14.695l-34.512-152.28c-2.5391-11.211-13.562-18.305-24.938-15.871-15.156 3.2539-59.512 7.8086-82.371-10.328-3.5039-2.707-17.109-15.598-19.438-28.949-0.88281-4.9961-3.4219-9.6133-7.4531-12.699-14.406-11.059-31.559-10.723-31.559-10.723-20.594 0.69141-32.031 13.141-32.031 13.141l-99.652 113.29c-6.8203 7.7695-6.9688 19.355-0.35547 27.312l63.773 76.516c7.4102 8.9023 20.637 10.098 29.559 2.6875 8.9023-7.4297 10.098-20.656 2.6875-29.559l-52.25-62.723 21.371-24.309 162.04 197.54c2.4766 3.2539 25.758 31.699 74.457 31.699l71.477-0.019531 0.10547 32.18h-81.742-0.042969c-38.289 0-70.07-25.863-75.445-30.48l-74.121-88.902c-7.4297-8.9023-20.676-10.117-29.559-2.6875-8.9023 7.4297-10.098 20.656-2.6875 29.559l75.129 90.117s43.305 44.379 106.72 44.379h102.78c5.582 0 10.938-2.2266 14.863-6.1719 3.9453-3.9453 6.1523-9.3008 6.1289-14.883zm-285.66-185.11-36.066-43.977 36.609-41.629s2.2891-1.6172 3.5273 1.0508c0 0 1.8906 5.332 6.3398 12.848 0.023437 0 22 38.688-10.41 71.707zm130.74 159.41-103.91-126.69c20.699-20.172 29.789-41.941 32.371-62.18 25.758 9.9102 54.664 9.4258 72.652 7.9336l5.0391 22.211-27 3.0664c-11.523 1.3242-19.797 11.734-18.473 23.238 1.3008 11.523 11.859 19.816 23.219 18.473l31.57-3.6094 4.1758 18.473-24.898 2.8555c-11.523 1.3242-19.797 11.734-18.473 23.238 1.3008 11.523 11.945 19.773 23.219 18.473l29.473-3.3789 4.7461 20.93c1.5117 6.6953 6.2344 12.238 12.617 14.82l42.93 17.383c13.562 6.0859 19.648 15.156 22.273 20.57l-69.965 0.019531c-28.07-0.019531-40.875-14.969-41.566-15.828z"></path>

      </g>
     <g id="IconSvg_iconCarrier">
      <path xmlns="http://www.w3.org/2000/svg" d="m609.77 503.64s5.75-41.227-46.727-67.953c0 0-22.273-9.9492-35.938-14.695l-34.512-152.28c-2.5391-11.211-13.562-18.305-24.938-15.871-15.156 3.2539-59.512 7.8086-82.371-10.328-3.5039-2.707-17.109-15.598-19.438-28.949-0.88281-4.9961-3.4219-9.6133-7.4531-12.699-14.406-11.059-31.559-10.723-31.559-10.723-20.594 0.69141-32.031 13.141-32.031 13.141l-99.652 113.29c-6.8203 7.7695-6.9688 19.355-0.35547 27.312l63.773 76.516c7.4102 8.9023 20.637 10.098 29.559 2.6875 8.9023-7.4297 10.098-20.656 2.6875-29.559l-52.25-62.723 21.371-24.309 162.04 197.54c2.4766 3.2539 25.758 31.699 74.457 31.699l71.477-0.019531 0.10547 32.18h-81.742-0.042969c-38.289 0-70.07-25.863-75.445-30.48l-74.121-88.902c-7.4297-8.9023-20.676-10.117-29.559-2.6875-8.9023 7.4297-10.098 20.656-2.6875 29.559l75.129 90.117s43.305 44.379 106.72 44.379h102.78c5.582 0 10.938-2.2266 14.863-6.1719 3.9453-3.9453 6.1523-9.3008 6.1289-14.883zm-285.66-185.11-36.066-43.977 36.609-41.629s2.2891-1.6172 3.5273 1.0508c0 0 1.8906 5.332 6.3398 12.848 0.023437 0 22 38.688-10.41 71.707zm130.74 159.41-103.91-126.69c20.699-20.172 29.789-41.941 32.371-62.18 25.758 9.9102 54.664 9.4258 72.652 7.9336l5.0391 22.211-27 3.0664c-11.523 1.3242-19.797 11.734-18.473 23.238 1.3008 11.523 11.859 19.816 23.219 18.473l31.57-3.6094 4.1758 18.473-24.898 2.8555c-11.523 1.3242-19.797 11.734-18.473 23.238 1.3008 11.523 11.945 19.773 23.219 18.473l29.473-3.3789 4.7461 20.93c1.5117 6.6953 6.2344 12.238 12.617 14.82l42.93 17.383c13.562 6.0859 19.648 15.156 22.273 20.57l-69.965 0.019531c-28.07-0.019531-40.875-14.969-41.566-15.828z"></path>

      </g>
      </svg>