<svg id="svg" fill="#ffffff" stroke="#ffffff" width="200" height="200" version="1.1" viewBox="144 144 512 512" xmlns="http://www.w3.org/2000/svg">
    <g id="IconSvg_bgCarrier" stroke-width="0"></g>
    <g id="IconSvg_tracerCarrier" stroke-linecap="round" stroke-linejoin="round" stroke="#CCCCCC" stroke-width="0">
      <path xmlns="http://www.w3.org/2000/svg" d="m493.29 482.45c-1.4336-2.3164-3.9648-3.7305-6.6953-3.7305h-31.488v-259.78c0-3.1797-1.9102-6.043-4.8438-7.2656l-94.465-39.359c-2.4336-1.0234-5.2031-0.75781-7.3945 0.71484-2.1914 1.4609-3.5039 3.918-3.5039 6.5508v86.594c0 2.0859 0.83203 4.0898 2.3047 5.5664l10.18 10.176-10.18 10.18c-3.0742 3.0742-3.0742 8.0547 0 11.133l10.18 10.176-10.18 10.18c-1.4766 1.4727-2.3047 3.4766-2.3047 5.5625v149.57h-31.488c-2.7305 0-5.2617 1.4141-6.6953 3.7305-1.4336 2.3203-1.5625 5.2188-0.34766 7.6602l15.742 31.488c1.3359 2.668 4.0625 4.3516 7.043 4.3516h39.359v55.105c-4.3477 0-7.8711 3.5234-7.8711 7.8711v31.488c0 4.3477 3.5234 7.8711 7.8711 7.8711h62.977c4.3477 0 7.8711-3.5234 7.8711-7.8711v-31.488c0-4.3477-3.5234-7.8711-7.8711-7.8711v-55.105h39.359c2.9844 0 5.707-1.6836 7.043-4.3516l15.742-31.488c1.2227-2.4375 1.0898-5.3359-0.34375-7.6602zm-132.65-150.04 13.438-13.438c3.0742-3.0742 3.0742-8.0547 0-11.133l-10.176-10.176 10.18-10.18c3.0742-3.0742 3.0742-8.0547 0-11.133l-13.441-13.438v-71.523l78.719 32.797 0.003906 254.53h-39.359v-251.91c0-4.3477-3.5234-7.8711-7.8711-7.8711s-7.8711 3.5234-7.8711 7.8711v251.91h-23.617zm55.105 229.85-31.488-10.496v-7.0195l31.488 10.496zm-31.488 6.1016 31.488 10.496v2.1953h-31.488zm39.359 44.18h-47.23v-15.742h47.23zm-7.8711-73.898-31.488-10.496v-2.1992h31.488zm50.238-28.438h-131.96l-7.8711-15.742 26.621-0.003906h121.09z"></path>

      </g>
     <g id="IconSvg_iconCarrier">
      <path xmlns="http://www.w3.org/2000/svg" d="m493.29 482.45c-1.4336-2.3164-3.9648-3.7305-6.6953-3.7305h-31.488v-259.78c0-3.1797-1.9102-6.043-4.8438-7.2656l-94.465-39.359c-2.4336-1.0234-5.2031-0.75781-7.3945 0.71484-2.1914 1.4609-3.5039 3.918-3.5039 6.5508v86.594c0 2.0859 0.83203 4.0898 2.3047 5.5664l10.18 10.176-10.18 10.18c-3.0742 3.0742-3.0742 8.0547 0 11.133l10.18 10.176-10.18 10.18c-1.4766 1.4727-2.3047 3.4766-2.3047 5.5625v149.57h-31.488c-2.7305 0-5.2617 1.4141-6.6953 3.7305-1.4336 2.3203-1.5625 5.2188-0.34766 7.6602l15.742 31.488c1.3359 2.668 4.0625 4.3516 7.043 4.3516h39.359v55.105c-4.3477 0-7.8711 3.5234-7.8711 7.8711v31.488c0 4.3477 3.5234 7.8711 7.8711 7.8711h62.977c4.3477 0 7.8711-3.5234 7.8711-7.8711v-31.488c0-4.3477-3.5234-7.8711-7.8711-7.8711v-55.105h39.359c2.9844 0 5.707-1.6836 7.043-4.3516l15.742-31.488c1.2227-2.4375 1.0898-5.3359-0.34375-7.6602zm-132.65-150.04 13.438-13.438c3.0742-3.0742 3.0742-8.0547 0-11.133l-10.176-10.176 10.18-10.18c3.0742-3.0742 3.0742-8.0547 0-11.133l-13.441-13.438v-71.523l78.719 32.797 0.003906 254.53h-39.359v-251.91c0-4.3477-3.5234-7.8711-7.8711-7.8711s-7.8711 3.5234-7.8711 7.8711v251.91h-23.617zm55.105 229.85-31.488-10.496v-7.0195l31.488 10.496zm-31.488 6.1016 31.488 10.496v2.1953h-31.488zm39.359 44.18h-47.23v-15.742h47.23zm-7.8711-73.898-31.488-10.496v-2.1992h31.488zm50.238-28.438h-131.96l-7.8711-15.742 26.621-0.003906h121.09z"></path>

      </g>
      </svg>